<?xml version='1.0' encoding='utf-8'?>
<svg xmlns="http://www.w3.org/2000/svg" enable-background="new 0 0 483.255 460.874" viewBox="0 0 483.26 460.87"> <path d="m341.19,104.57v-7.525l-4.789-1.368s-12.998-21.207-13.682-24.627-2.735-13.682-.684-31.468-4.105-32.152-17.103-34.888-32.152-5.473-53.358,16.418-61.57,51.308-61.57,51.308-40.361,19.838-43.782,27.363-9.577,28.048-9.577,28.048l23.259.684s-2.737-20.523 9.577-28.048 12.998,2.736 32.152-12.313 25.311-25.996 47.201-54.043 46.518-22.575 46.518-22.575 23.259,4.789 20.522,15.05-15.049,23.259-15.733,34.889 6.84,35.572 11.629,38.993 29.41,4.11 29.41,4.11z" fill="#5d1d0c" stroke="#000"/> <path d="m185.71,128.66s2.806-18.239-15.745-16.836-17.148,17.771-17.148,17.771h4.365s.156-15.121 13.563-13.718 10.289,12.627 10.289,12.627l4.68.16z" fill="#b4985a" stroke="#000" stroke-width=".7944"/> <path d="m124.44,130.21s.624-5.612 4.053-5.768 25.878.312 25.878.312 3.741,2.806 3.741,5.145-33.67.31-33.67.31z" fill="#5d1d0c" stroke="#000" stroke-width=".7944"/> <path d="m366.39,126.32s1.092-21.981-23.695-21.669-23.384,21.357-23.384,21.357l5.612.156s-1.403-17.616 17.771-17.46 18.396,16.836 18.396,16.836l5.29.77z" fill="#b4985a" stroke="#000" stroke-width=".7944"/> <path d="m310.26,99.504s4.677-3.119 5.924-.624 2.993,6.104 2.026,7.951" fill="none" stroke="#000" stroke-width=".7944"/> <path d="m331.81,97.096c-12.763,0-23.107,6.05-23.107,13.516s10.345,13.519 23.107,13.519 23.105-6.053 23.105-13.519-10.35-13.514-23.11-13.514zm.51,20.964c-9.255,0-16.758-3.805-16.758-8.497s7.503-8.496 16.758-8.496 16.758,3.804 16.758,8.496-7.5,8.5-16.76,8.5z" fill="#b4985a" stroke="#000" stroke-width=".9166"/> <path d="m51.141,133.3-9.577,65.672-41.046,234.65 5.473,12.998s22.575,2.053 43.782,4.789 95.088,3.42 116.3,3.42 62.936-1.368 62.936-1.368 80.037,5.473 129.98,5.473 71.829-2.052 71.829-2.052 17.787,4.104 31.469,3.42 18.47-8.209 19.838-12.313 .685-44.466-3.42-52.675-4.789-11.629-4.789-11.629l-22.574-115.61v-6.841l-12.998-73.196-10.262-63.62-196.33,2.052-180.62,6.83z" fill="#b2aa7e" stroke="#000"/> <g fill="#b2aa7e" stroke="#000"> <path d="m426.02 393.26-13-201.81-161.44 5.47 6.15 187.44 7.53 2.06v5.47z"/> <path d="m271.42 256.44-3.42 134.08"/> <path d="m220.11 392.57 2.74-195.65-156.66-1.36-9.578 189.49 4.105 2.73v4.79z"/> <path d="m73.032 244.12-12.315 143.66"/> </g> <path d="m179.75 119.62s19.838-76.618 23.943-83.459 13-26.679 28.732-26.679 43.779 21.207 44.464 26.679 2.053 17.103 4.789 24.627 9.578 30.099 21.207 38.993 14.365 8.894 14.365 8.894l23.942-4.105s-12.313-12.997-22.574-23.258-23.25-27.372-28.04-32.845-8.21-18.47-17.787-26.679-24.62-22.575-45.14-21.207-35.572 7.524-47.886 43.781-25.312 73.198-25.312 73.198l25.31 2.05z" fill="#5d1d0c" stroke="#000"/> <path d="m348.93,125.69v-10.445l-.623-3.897s-8.574.312-11.536.312-15.434-1.091-15.434.312 1.715,13.875 1.715,13.875l25.87-.15z" fill="#5d1d0c" stroke="#000" stroke-width=".7944"/> <path d="m63.454 191.45 158.02 1.368-2.052 77.3h-23.943s-25.995-2.052-52.675-2.052-67.725-3.421-69.777-3.421-23.943-3.42-23.943-3.42l14.374-69.78z" fill="#b2aa7e" stroke="#000"/> <path d="m246.79 194.19s62.252-2.052 84.827-2.052 84.143-5.473 84.143-5.473l7.525 81.405s-75.25 2.053-79.354 2.736-45.149-4.789-54.043-3.421-36.94 2.736-36.94 2.736l-6.16-75.95z" fill="#b2aa7e" stroke="#000"/> <path d="m161.75,267.07s-1.414,50.55-2.474,53.731 1.767,12.019-28.28,12.372-25.452-11.312-25.452-11.312l.354-54.327 55.85-.46z" fill="#5d1d0c" stroke="#000"/> <path d="m153.07,190.77s-8.209,56.777-10.261,69.775-10.945,74.566-10.945,74.566l-4.789,23.259s-6.841,12.998-15.734,12.313-15.734-3.421-12.313-21.207 9.577-62.252 9.577-62.252l4.789-29.416 15.05-66.355 24.63-.67z" fill="#5d1d0c" stroke="#000"/> <path d="m131.79 279.8c0-3.556-2.893-6.448-6.448-6.448s-6.448 2.893-6.448 6.448 2.893 6.448 6.448 6.448 6.45-2.89 6.45-6.45zm-6.45 3.45c-1.901 0-3.448-1.547-3.448-3.448s1.547-3.448 3.448-3.448 3.448 1.547 3.448 3.448-1.55 3.45-3.45 3.45z" fill="#b4985a" stroke="#130f06"/> <path d="m126.49 308.79c0-3.556-2.893-6.448-6.448-6.448s-6.448 2.893-6.448 6.448 2.893 6.448 6.448 6.448 6.45-2.9 6.45-6.45zm-6.45 3.45c-1.901 0-3.448-1.547-3.448-3.448s1.547-3.448 3.448-3.448 3.448 1.547 3.448 3.448-1.55 3.45-3.45 3.45z" fill="#b4985a" stroke="#130f06"/> <path d="m136.83,252.49c.238-2.581-2.396-4.862-5.997-5.195s-6.607,1.43-6.846,4.011 2.396,4.864 5.997,5.196c3.6.32 6.61-1.44 6.85-4.02zm-6.57,1.02c-2.064-.189-3.344-1.289-3.285-1.933s1.519-1.488 3.583-1.298 3.344,1.289 3.285,1.932-1.52,1.49-3.58,1.3z" fill="#b4985a" stroke="#130f06"/> <path d="m132.88,251.88 1.768-10.958c.22-1.363-.707-2.646-2.07-2.866s-2.646.707-2.866,2.07l-1.768,10.957c-.22,1.363.707,2.646 2.07,2.866 1.37.22 2.65-.71 2.87-2.07z" fill="#b4985a" stroke="#130f06"/> <path d="m143.43,296.76 .353-15.554s-9.897.707-19.088.707-17.675-.707-17.675-.707l-.707,14.493s2.828,1.061 13.786,1.061 23.33,0 23.33,0z" fill="#5d1d0c" stroke="#000"/> <path d="m372.78,269.19s0,48.782-.354,50.55-1.061,8.131-29.693,7.777-26.159-9.545-26.159-9.545l-1.061-49.843 57.26,1.05z" fill="#5d1d0c" stroke="#000"/> <path d="m346.67 185.3-28.048 1.368 4.789 58.146s4.104 36.94 6.156 43.781 12.314 63.62 12.314 63.62 1.368 16.419 20.522 14.366 10.261-18.471 10.261-18.471l-14.365-54.043s-2.053-18.471-4.789-25.312-8.209-46.517-8.209-54.726 1.37-28.74 1.37-28.74z" fill="#5d1d0c" stroke="#000"/> <path d="m353.08 303.48c0-3.556-2.893-6.448-6.448-6.448s-6.448 2.893-6.448 6.448 2.893 6.448 6.448 6.448 6.45-2.89 6.45-6.45zm-6.45 3.45c-1.901 0-3.448-1.547-3.448-3.448s1.547-3.448 3.448-3.448 3.448 1.547 3.448 3.448-1.55 3.45-3.45 3.45z" fill="#b4985a" stroke="#130f06"/> <path d="m348.48 274.5c0-3.556-2.893-6.448-6.448-6.448s-6.448 2.893-6.448 6.448 2.893 6.448 6.448 6.448 6.45-2.9 6.45-6.45zm-6.45 3.44c-1.901 0-3.448-1.547-3.448-3.448s1.547-3.448 3.448-3.448 3.448 1.547 3.448 3.448-1.55 3.45-3.45 3.45z" fill="#b4985a" stroke="#130f06"/> <path d="m344.42,247.57c0-2.592-2.832-4.622-6.448-4.622s-6.448,2.03-6.448,4.622 2.832,4.623 6.448,4.623 6.45-2.03 6.45-4.62zm-6.45,1.63c-2.073,0-3.448-.977-3.448-1.623s1.375-1.622 3.448-1.622 3.448.977 3.448,1.622c0,.64-1.37,1.62-3.45,1.62z" fill="#b4985a" stroke="#130f06"/> <path d="m340.54,247.14-.354-8.836c-.056-1.379-1.219-2.453-2.598-2.398-1.38.055-2.453,1.218-2.398,2.598l.354,8.835c.056,1.381 1.219,2.453 2.598,2.398 1.38-.06 2.46-1.22 2.4-2.6z" fill="#b4985a" stroke="#130f06"/> <path d="m363.59 292.17-1.767-14.14s-10.958 2.827-16.261 3.181-22.978 3.182-22.978 3.182l2.828 14.493s5.656-1.769 20.149-3.182 18.03-3.53 18.03-3.53z" fill="#5d1d0c" stroke="#000"/> </svg>